<?xml version="1.0" standalone="no"?>
<!DOCTYPE svg PUBLIC "-//W3C//DTD SVG 20010904//EN"
 "http://www.w3.org/TR/2001/REC-SVG-20010904/DTD/svg10.dtd">
<svg version="1.0" xmlns="http://www.w3.org/2000/svg"
 width="1024.000000pt" height="1024.000000pt" viewBox="0 0 1024.000000 1024.000000"
 preserveAspectRatio="xMidYMid meet">
<metadata>
Created by potrace 1.14, written by Peter Selinger 2001-2017
</metadata>
<g transform="translate(0.000000,1024.000000) scale(0.100000,-0.100000)"
fill="#000000" stroke="none">
<path d="M2389 10236 c-2 -2 -39 -6 -82 -10 -145 -12 -483 -83 -513 -107 -6
-5 -13 -7 -16 -4 -7 7 -259 -95 -368 -150 -153 -77 -377 -221 -466 -300 -6 -5
-40 -35 -74 -65 -105 -92 -231 -222 -290 -300 -14 -18 -32 -41 -40 -50 -44
-53 -50 -61 -50 -68 0 -4 -10 -18 -23 -32 -50 -54 -234 -378 -229 -402 1 -5
-2 -8 -8 -8 -6 0 -9 -3 -8 -7 1 -8 -3 -21 -30 -83 -8 -19 -16 -39 -18 -45 -2
-5 -19 -55 -39 -110 -19 -55 -37 -109 -40 -120 -10 -47 -14 -63 -28 -120 -8
-33 -18 -76 -21 -95 -3 -19 -8 -46 -11 -60 -3 -14 -7 -43 -10 -65 -3 -22 -8
-56 -12 -75 -4 -19 -8 -1279 -9 -2800 -2 -2303 0 -2784 12 -2880 57 -474 224
-891 508 -1270 22 -30 46 -60 51 -66 6 -6 35 -40 65 -75 90 -103 157 -168 309
-296 36 -31 41 -35 81 -63 19 -13 40 -29 47 -35 7 -5 18 -15 25 -21 55 -44
374 -221 391 -216 4 1 7 -3 7 -10 0 -6 3 -9 6 -5 3 3 22 -3 42 -13 33 -17 162
-68 187 -73 6 -2 16 -6 23 -10 6 -5 12 -6 12 -3 0 3 17 -1 37 -9 34 -12 92
-29 145 -41 10 -2 28 -6 40 -9 29 -7 163 -32 208 -39 19 -4 69 -9 110 -14 100
-10 5523 -9 5623 1 301 30 592 114 872 252 140 69 385 217 405 244 3 4 21 18
40 31 90 63 286 248 362 342 18 22 42 51 53 64 11 12 29 35 40 50 11 15 26 33
33 40 6 7 12 16 12 21 0 4 14 23 30 42 17 18 30 37 30 41 0 4 9 17 20 30 11
13 20 29 20 36 0 7 3 14 7 16 5 1 21 28 37 58 16 30 34 58 40 62 7 5 7 8 1 8
-7 0 -7 3 0 8 9 6 68 118 71 132 1 6 15 41 39 95 10 22 19 42 19 45 1 3 6 19
13 35 23 60 26 70 27 75 1 3 5 11 9 18 5 6 6 12 3 12 -3 0 1 17 9 38 15 38 44
148 51 192 2 14 7 36 11 50 13 51 20 93 29 165 3 28 8 61 12 75 10 40 12 5535
1 5625 -56 503 -221 926 -513 1315 -22 30 -45 60 -51 66 -5 6 -35 40 -65 75
-94 107 -217 226 -300 289 -18 14 -49 40 -69 57 -20 18 -41 33 -46 33 -6 0
-22 11 -37 25 -15 14 -32 25 -38 25 -5 0 -10 5 -10 10 0 6 -7 10 -15 10 -8 0
-15 4 -15 9 0 5 -11 12 -25 15 -14 4 -25 11 -25 16 0 6 -5 10 -10 10 -6 0 -27
11 -48 23 -50 32 -232 127 -232 121 0 -2 -11 3 -25 12 -14 9 -25 13 -25 10 0
-4 -15 1 -32 11 -18 9 -35 18 -38 18 -4 1 -49 16 -120 43 -8 3 -17 6 -20 7 -3
0 -32 9 -65 19 -57 17 -68 20 -116 31 -11 2 -28 6 -37 9 -9 3 -33 8 -52 11
-19 3 -42 8 -50 10 -23 6 -70 14 -120 20 -25 3 -56 9 -70 13 -25 7 -5563 15
-5571 8z"/>
</g>
</svg>
